P2
80 60
255
158 138 91 39 86 131 151 121 230 115 31 167 33 128 157 115 176 49 218 126 130 14 47 99 18 238 69 233 92 160 223 243 38 202 142 25 20 144 74 97 156 28 37 154 109 247 210 74 101 58 139 115 86 228 194 179 80 73 240 137 97 60 68 233 72 122 115 140 27 39 68 106 253 4 77 74 82 225 225 254 241 77 82 251 116 252 242 136 164 249 178 118 114 27 175 244 99 19 34 163 122 212 113 200 129 251 22 209 123 198 56 151 27 186 251 200 237 170 116 109 94 247 30 121 143 34 127 247 59 51 6 70 218 208 247 195 198 203 0 178 181 172 42 79 13 246 186 29 142 180 184 80 25 46 193 2 104 155 115 123 229 105 11 155 121 203 166 199 145 31 144 152 6 198 215 206 176 75 122 208 212 244 75 72 183 155 87 70 247 248 140 93 176 104 60 39 46 7 111 125 231 121 213 118 236 245 49 250 63 54 228 55 40 121 120 153 193 187 198 244 138 183 78 116 139 44 68 52 11 32 72 92 207 180 251 111 83 168 144 250 169 236 124 150 253 163 151 127 163 195 98 253 192 223 211 137 119 139 88 219 7 23 14 78 51 149 97 29 185 157 108 218 40 152 123 119 43 191 159 63 78 37 254 242 248 159 66 63 110 177 11 82 58 28 225 207 89 232 192 172 1 248 169 80 159 184 192 125 44 152 107 253 184 229 64 119 172 135 18 98 82 9 145 228 44 146 118 25 141 166 211 66 125 65 250 44 57 51 118 47 157 142 60 214 191 55 198 76 65 224 177 17 90 25 223 36 183 209 230 201 95 175 17 70 164 181 227 234 198 145 224 44 155 167 243 190 235 238 138 107 199 158 252 86 132 194 61 212 242 36 114 154 5 140 228 246 251 119 207 230 88 239 199 101 106 26 126 170 146 51 22 184 45 112 22 160 130 114 190 254 184 136 194 152 100 194 243 210 174 36 193 189 173 11 32 186 236 218 9 112 222 16 3 199 93 110 20 157 173 195 37 200 54 160 27 90 51 41 245 99 91 59 31 74 196 18 74 155 113 161 95 0 49 67 55 61 213 232 4 6 120 7 169 119 17 112 19 199 191 224 131 201 142 232 20 207 76 144 129 22 77 237 9 79 111 218 119 59 40 198 202 193 224 62 46 40 153 75 56 218 216 60 128 177 107 171 13 193 62 10 246 219 203 138 160 149 161 43 187 107 244 19 93 239 99 254 97 194 141 136 52 235 85 82 129 11 17 86 203 179 71 207 15 183 229 10 226 71 132 131 206 20 198 28 213 100 244 196 57 154 247 106 231 3 190 133 191 41 35 246 149 241 109 113 80 2 87 195 247 92 109 58 184 206 118 175 214 249 115 50 106 74 138 205 253 174 153 167 22 162 9 9 251 56 116 101 112 133 126 199 113 82 27 126 105 73 105 247 211 75 34 191 60 68 37 15 125 215 211 37 141 150 100 153 186 21 135 92 22 77 133 91 136 125 218 124 60 160 78 116 172 94 156 75 74 143 210 172 203 36 204 189 224 196 43 184 47 105 161 192 186 2 110 101 13 23 152 75 181 210 201 145 34 161 210 43 171 70 234 40 173 95 134 68 153 237 255 205 239 148 52 224 53 33 94 97 150 150 79 41 12 189 136 86 165 221 133 22 7 62 183 167 192 89 118 250 53 25 49 76 239 191 154 78 122 186 197 74 98 202 84 135 6 60 88 187 254 129 188 140 18 113 55 202 236 220 108 234 198 41 243 63 200 214 184 224 243 25 207 3 121 58 7 90 146 213 153 15 74 223 197 32 237 142 105 72 76 28 43 211 175 61 64 53 148 153 114 231 13 234 177 193 130 77 104 65 176 121 179 6 219 190 51 47 248 72 166 192 21 50 23 38 215 117 241 7 227 96 85 16 103 79 54 233 210 175 1 245 33 225 242 222 100 224 88 141 136 218 150 78 238 20 134 138 243 129 135 255 76 245 7 113 46 109 46 245 58 137 192 134 95 245 86 37 6 228 199 152 1 57 46 88 75 157 55 112 85 140 32 218 20 38 245 67 33 234 38 209 0 237 39 228 99 213 212 149 183 19 82 55 231 129 65 25 55 13 101 51 188 243 34 39 110 101 199 205 192 232 239 49 165 21 101 54 172 233 138 149 124 138 15 72 73 22 35 109 32 155 250 70 187 93 26 131 212 37 14 244 32 232 122 112 210 223 197 129 23 147 96 212 1 79 215 254 31 250 221 85 20 131 107 239 29 156 62 49 254 72 185 1 233 51 133 91 4 17 14 21 250 238 156 127 9 205 202 170 10 212 110 186 251 30 168 15 217 238 52 147 233 61 200 12 1 40 150 140 123 226 50 77 10 34 234 151 52 47 82 107 4 52 165 237 76 123 188 117 14 8 120 251 129 64 194 157 89 8 204 177 206 70 237 26 140 209 78 226 163 35 45 86 118 131 5 99 183 253 130 64 130 127 254 93 88 65 102 239 108 182 249 92 203 130 190 219 75 26 142 248 242 128 237 130 50 49 59 49 72 135 254 205 53 4 130 87 4 235 42 106 222 234 151 201 5 132 191 2 219 167 135 241 9 88 129 133 223 141 169 195 138 158 222 181 113 239 5 36 139 85 234 195 201 88 3 35 159 124 228 5 165 94 252 48 76 228 64 222 71 222 126 76 22 30 146 83 235 168 3 219 108 216 103 77 53 82 149 201 205 67 23 32 52 29 72 193 155 222 241 202 17 43 223 123 42 235 139 92 110 93 212 151 194 131 251 248 47 86 254 13 148 252 180 94 89 13 144 228 185 186 81 10 101 52 165 231 172 40 25 252 134 147 189 249 254 190 27 119 25 27 128 237 61 131 237 114 139 14 220 39 122 76 166 16 244 41 40 188 48 123 106 14 191 11 57 130 189 143 12 23 146 137 110 80 2 28 133 223 21 180 163 166 89 71 196 29 242 141 156 32 112 203 44 209 226 117 235 84 48 249 99 199 148 46 134 58 118 233 114 235 148 87 75 225 225 45 29 206 110 216 127 217 191 9 77 181 199 132 199 196 169 20 194 197 52 163 149 131 39 164 224 222 44 193 26 185 108 27 81 142 155 68 155 177 248 125 95 179 38 204 230 84 178 56 87 123 141 106 241 131 244 31 20 13 29 230 16 251 196 1 186 129 128 82 18 16 98 27 24 173 245 253 148 132 75 216 155 13 86 187 65 66 163 8 175 58 14 57 61 24 17 186 126 80 143 140 2 94 16 85 123 96 208 236 4 255 186 124 212 17 157 209 22 162 39 116 213 180 168 19 3 113 171 137 160 105 169 238 56 151 56 250 27 98 232 248 64 169 112 100 212 239 43 27 214 6 41 170 176 207 0 171 198 190 64 129 146 44 5 144 113 165 1 149 1 173 252 64 192 9 146 75 128 120 25 245 121 247 66 186 215 39 62 46 148 26 208 75 201 128 134 255 178 238 81 215 180 53 218 43 55 140 147 217 142 33 2 71 149 69 114 85 26 41 22 95 53 38 9 210 207 90 247 203 40 169 14 126 228 13 235 206 22 44 101 42 16 115 104 161 60 37 82 104 38 111 138 86 54 201 119 90 89 176 177 206 34 104 89 69 45 154 70 158 49 237 206 11 54 31 187 74 43 207 117 1 147 110 107 205 95 18 14 117 225 88 40 163 152 97 66 92 138 81 206 250 41 189 73 80 211 71 143 196 201 17 146 245 204 227 50 138 25 178 142 95 56 82 226 215 196 248 119 224 216 126 211 15 244 44 7 214 41 112 118 68 120 106 216 205 92 154 151 82 71 148 64 66 158 5 92 72 71 2 107 216 9 166 202 137 37 131 138 164 111 161 4 159 185 26 1 121 29 251 113 254 19 18 137 221 226 227 78 66 106 67 116 63 109 227 122 156 89 186 87 182 157 49 130 48 154 177 164 68 192 231 104 29 39 77 220 12 245 253 226 201 228 176 100 134 165 220 68 228 95 201 61 237 242 193 191 45 1 155 51 144 67 96 232 173 218 19 125 188 135 1 75 159 183 231 29 38 173 195 237 156 139 210 188 158 198 224 145 244 57 46 61 216 189 130 221 105 204 247 166 193 37 44 77 119 162 105 152 179 144 225 105 158 186 180 3 78 16 227 132 208 93 169 101 116 16 65 190 44 116 240 125 14 86 159 41 227 152 12 236 241 57 50 67 202 140 107 2 14 59 98 36 170 13 189 145 163 250 125 91 234 32 40 102 215 55 171 118 120 213 50 198 118 229 136 244 50 72 219 29 253 174 231 124 59 247 12 213 93 11 222 246 189 229 92 52 22 29 131 93 160 252 50 229 69 183 193 222 165 247 111 239 109 159 76 59 42 174 36 147 100 242 255 38 135 0 90 164 241 178 220 193 169 201 136 3 254 235 134 56 11 44 25 179 54 164 60 255 160 84 125 85 35 188 97 4 166 41 38 197 143 26 254 213 130 211 59 193 1 45 26 148 20 255 47 179 158 132 112 75 216 152 240 230 196 96 181 28 71 81 44 165 199 144 189 148 182 223 6 3 36 142 180 103 197 188 164 100 119 201 9 167 25 125 41 28 27 62 232 171 191 95 32 230 56 16 227 162 13 69 186 79 105 158 231 23 74 183 27 141 216 149 164 103 175 122 153 220 205 240 131 167 136 76 234 165 74 117 133 31 117 229 91 153 54 34 148 27 177 228 97 16 248 53 148 159 82 105 102 221 57 10 217 15 71 64 65 59 146 163 196 213 145 46 130 23 153 236 239 155 231 142 181 193 188 248 202 183 137 192 214 160 177 45 121 253 113 20 82 87 19 40 126 91 131 179 112 126 9 92 12 31 152 201 123 229 92 198 238 52 120 168 182 29 107 7 120 17 251 207 15 242 241 233 104 156 109 214 110 67 52 243 122 195 92 20 196 187 177 247 28 33 174 90 65 178 196 173 255 147 166 137 153 156 0 70 27 70 31 0 217 82 73 150 109 119 190 169 55 170 173 236 219 165 96 79 2 196 59 216 174 233 98 76 64 161 188 67 134 166 134 237 119 189 81 232 241 198 145 255 208 129 115 231 179 64 158 200 51 153 190 130 71 213 58 89 175 134 36 55 85 105 68 133 130 229 4 73 176 167 38 0 8 79 148 169 252 52 247 30 25 241 174 105 37 248 103 103 161 97 250 114 189 197 3 199 246 154 172 248 190 215 198 106 208 93 243 75 81 145 27 103 222 211 56 233 4 34 228 80 199 141 234 106 64 147 2 76 153 183 128 207 250 59 20 231 233 180 205 221 55 116 233 237 104 18 100 193 146 232 41 175 59 45 20 236 208 200 74 209 60 182 21 39 114 205 180 85 36 202 104 63 107 227 119 246 173 16 111 52 82 3 111 239 26 18 124 198 234 222 34 85 194 190 67 91 93 146 209 185 237 186 225 197 98 220 141 87 0 52 243 11 72 252 14 73 184 120 223 119 27 161 55 79 89 162 30 107 31 17 245 109 199 160 168 23 114 7 27 99 226 161 64 251 241 159 113 58 238 23 108 97 111 235 245 105 124 106 104 64 215 227 176 245 21 139 27 203 42 150 20 161 203 155 141 232 12 177 25 223 9 17 228 250 80 195 155 88 41 193 14 15 0 188 163 12 200 129 195 77 89 196 86 216 114 48 101 139 174 122 62 205 216 58 155 122 83 102 123 56 213 234 43 102 151 136 78 94 105 41 192 130 62 142 240 233 15 147 218 251 34 143 122 210 76 56 229 149 109 192 248 11 165 173 10 77 86 8 64 120 252 131 211 164 101 2 105 255 32 177 253 146 25 104 22 45 69 247 96 170 30 195 182 178 85 176 184 16 120 132 22 96 73 59 137 243 183 197 126 138 39 133 26 185 162 68 97 175 238 0 167 249 250 47 121 13 109 222 139 45 139 246 210 105 245 30 25 141 48 61 205 146 224 154 64 16 118 201 161 90 62 31 237 93 51 64 71 159 40 52 62 215 204 77 6 176 5 23 85 34 196 224 249 206 130 79 130 120 7 254 22 223 19 233 245 253 125 199 46 68 153 143 7 166 148 50 80 203 53 89 82 207 245 53 196 33 111 82 136 130 235 253 154 162 108 150 250 138 236 38 78 127 145 248 57 229 82 212 178 48 176 15 37 210 143 246 156 210 228 209 222 185 1 255 71 154 60 187 237 115 54 192 138 206 192 221 230 250 144 65 59 191 166 53 80 108 25 223 32 33 48 234 139 83 245 33 198 179 94 81 170 164 237 71 126 157 146 207 7 122 129 202 133 16 57 254 80 142 106 165 20 176 219 202 108 188 134 124 158 24 40 164 129 63 24 120 26 61 75 49 173 84 170 231 137 222 80 89 207 200 244 148 81 49 80 16 217 137 25 3 41 238 17 142 179 215 197 192 126 113 221 96 177 165 3 46 71 50 188 18 253 238 53 92 39 240 132 227 2 72 34 172 148 5 255 148 68 175 2 75 132 17 0 223 111 167 59 206 196 185 72 0 141 16 218 128 176 168 26 66 161 179 209 94 118 247 174 85 197 120 195 248 129 52 1 233 0 69 120 18 222 202 24 219 215 29 11 243 161 43 132 11 102 192 141 41 129 52 179 216 110 16 56 187 191 115 209 15 125 205 45 112 112 159 238 33 161 222 102 87 7 92 156 67 172 25 194 78 194 138 153 48 49 192 14 226 36 187 211 67 199 70 122 161 83 65 200 151 8 159 40 115 128 248 70 8 242 108 117 132 247 143 166 248 34 130 28 204 148 46 229 224 83 227 152 63 171 158 92 226 20 35 0 64 98 177 127 207 155 39 43 14 123 138 174 44 208 190 2 125 134 150 33 41 120 30 215 109 20 88 243 188 109 88 19 45 95 24 121 74 112 10 151 27 76 71 144 211 250 18 42 165 79 235 233 200 201 234 165 12 21 194 29 62 182 73 169 7 21 222 39 146 107 32 152 234 152 89 202 16 45 146 199 144 164 102 156 187 238 143 29 241 120 138 197 199 15 211 9 7 30 222 206 2 62 153 8 56 115 79 166 250 202 15 45 115 199 169 156 65 130 162 177 175 236 156 34 245 55 156 3 143 10 124 16 85 47 5 208 123 13 98 144 221 232 222 42 177 248 118 5 64 126 162 82 95 130 175 3 68 218 198 165 12 211 216 244 115 168 109 207 98 15 4 251 76 168 158 186 131 142 120 159 162 156 173 173 244 121 3 249 183 125 238 156 129 75 75 107 124 22 205 10 32 127 242 110 138 95 129 184 130 78 155 155 45 73 230 247 162 229 218 223 34 148 219 199 61 241 189 211 139 138 119 175 252 196 39 40 212 52 149 236 168 115 117 124 78 156 233 191 189 169 19 63 142 59 129 115 58 205 67 249 179 161 202 92 178 54 73 227 253 151 140 21 46 230 71 202 104 200 239 79 174 68 129 17 53 20 179 195 163 179 149 15 179 46 215 59 22 202 8 51 230 34 139 88 218 58 3 249 17 161 14 34 109 248 114 90 144 202 41 199 1 128 214 44 228 43 93 107 129 80 233 2 76 97 117 152 49 202 235 21 207 155 20 217 1 187 222 40 11 186 48 195 155 203 36 191 227 110 171 42 140 197 2 174 119 250 52 73 21 155 67 164 200 210 143 75 144 144 212 104 198 63 181 28 113 145 131 131 108 164 226 96 138 57 44 58 53 193 144 33 79 106 138 71 245 154 108 22 111 158 141 32 245 38 248 119 106 73 146 111 250 15 25 228 89 209 35 36 189 39 245 61 122 119 210 156 67 13 186 70 196 175 184 123 90 195 148 133 43 253 152 37 145 143 223 24 239 86 20 88 221 152 200 52 221 123 153 218 49 37 14 134 42 123 115 59 82 47 60 249 13 202 89 91 80 100 162 83 52 220 36 185 12 57 184 150 174 91 194 167 106 213 14 91 225 72 114 7 3 40 189 46 202 92 67 195 50 69 114 146 174 255 94 208 204 138 142 84 58 13 20 173 215 175 143 239 9 98 222 18 27 25 193 250 71 223 108 237 139 44 171 249 101 52 155 17 237 112 5 155 124 52 210 116 163 133 228 235 97 231 99 160 177 195 211 40 15 229 217 174 190 114 253 164 158 176 213 65 37 34 24 152 150 235 221 234 196 149 191 217 18 101 233 235 180 15 34 41 243 189 163 122 176 174 82 62 220 95 108 117 129 126 90 171 182 79 237 52 115 186 67 150 5 212 134 229 125 131 139 107 83 195 96 61 105 212 26 235 163 123 226 55 44 62 206 136 234 51 84 54 33 34 168 82 63 93 28 81 243 218 89 221 147 36 102 60 125 32 119 255 142 42 123 57 23 150 188 189 82 146 222 93 102 7 8 153 197 121 42 192 205 70 84 38 54 153 90 99 158 61 196 253 38 189 96 53 245 181 9 53 66 50 50 31 101 235 204 239 139 233 78 230 109 211 133 255 34 143 147 152 247 61 10 102 9 254 160 95 14 172 145 19 205 249 81 191 46 225 59 113 240 255 248 209 202 114 63 69 144 80 207 143 180 204 199 216 209 18 177 249 110 59 2 145 53 128 160 200 152 84 165 11 56 185 203 120 5 36 239 49 35 152 176 146 70 43 159 244 78 117 215 128 237 0 182 54 201 80 7 203 15 210 180 185 154 57 53 43 5 206 32 60 164 35 152 203 227 116 110 150 130 133 8 254 144 141 15 11 168 92 152 213 223 100 95 77 84 10 178 92 183 52 81 57 241 172 75 142 191 153 53 215 234 41 180 237 192 228 212 48 240 45 85 38 122 226 248 80 66 193 68 71 101 148 249 16 139 232 233 23 120 182 113 92 138 6 5 69 225 213 18 101 210 68 120 158 53 211 221 100 135 108 154 250 162 104 93 172 81 239 175 78 67 27 73 119 77 205 19 24 183 196 247 2 19 46 219 113 250 77 82 184 184 94 105 53 86 205 157 156 231 158 25 5 74 162 38 141 31 29 129 89 47 82 54 209 118 212 226 147 121 92 240 10 23 198 116 171 89 19 131 211 63 108 198 47 203 204 35 77 97 123 15 55 253 109 101 99 138 116 129 91 81 111 58 181 75 167 200 26 50 232 152 34 212 54 178 155 106 24 233 57 22 219 161 149 143 65 225 71 103 222 209 241 173 72 217 73 50 152 170 201 105 179 245 215 3 126 70 164 64 45 99 241 102 72 46 40 220 148 177 179 211 91 176 235 225 242 236 52 44 231 173 220 240 141 86 13 24 159 179 106 30 66 211 211 222 18 42 166 145 1 234 29 73 202 248 174 123 62 8 246 120 128 134 6 43 100 241 42 125 122 30 247 144 70 209 105 6 28 216 155 16 157 21 57 116 120 201 13 80 64 74 101 24 62 7 28 13 186 136 1 146 17 34 242 16 88 159 28 181 193 19 86 200 125 20 232 140 42 91 162 252 86 24 119 190 251 209 1 205 153 67 47 181 158 28 66 255 255 106 189 178 192 7 115 107 164 9 152 28 214 231 99 104 49 248 33 64 6 49 109 186 23 200 27 234 154 208 57 197 160 224 87 33 207 87 138 123 211 190 139 180 156 37 248 184 101 15 193 27 104 182 27 160 19 17 38 177 58 217 176 191 199 177 203 53 51 58 109 173 193 19 140 2 107 210 77 64 250 188 140 116 119 241 197 75 139 134 134 131 229 106 172 80 169 107 190 170 249 5 143 170 56 223 151 211 225 202 220 237 139 219 156 47 78 231 141 162 25 218 83 125 25 229 248 193 111 57 82 143 60 167 3 162 147 228 227 131 219 59 60 160 93 29 243 134 137 186 52 220 25 37 58 171 75 188 61 70 203 4 44 208 7 151 154 68 36 54 227 77 60 90 101 18 7 16 35 171 223 250 188 76 238 194 102 132 51 45 27 203 73 116 71 15 66 175 151 126 3 171 177 8 109 57 57 160 23 61 239 247 20 47 218 70 243 107 11 10 25 64 187 242 235 82 19 69 64 127 141 167 183 199 100 212 10 32 196 157 66 233 134 25 184 14 208 159 138 23 40 24 143 169 97 205 137 199 102 168 89 139 207 118 81 172 211 33 74 1 185 147 145 252 197 220 60 229 28 69 212 30 239 82 31 232 119 205 116 7 174 98 29 252 1 91 95 140 71 173 157 121 177 6 31 131 8 229 230 176 136 110 142 22 97 71 118 71 151 114 227 208 2 138 153 68 68 164 84 23 157 230 247 225 162 40 205 85 9 9 11 102 24 229 147 243 140 50 122 37 24 44 156 82 111 230 56 47 133 14 194 111 75 47 90 241 24 11 140 92 70 163 43 247 79 236 127 239 3 236 221 16 139 249 107 249 26 251 176 229 97 27 9 27 220 154 15 120 163 204 152 251 127 118 90 115 91 51 254 171 250 131 158 52 194 58 220 141 177 229 136 101 42 210 226 123 87 129 19 155 9 52 79 20 179 155 127 236 146 118 58 19 147 251 10 152 203 69 181 69 163 113 182 231 139 72 83 64 12 138 64 51 181 83 248 54 58 236 240 132 215 35 241 131 212 186 162 170 109 41 185 41 171 10 204 180 67 149 135 91 88 155 162 174 223 152 26 101 92 142 213 43 85 164 175 178 208 22 135 164 159 51 49 97 34 230 64 236 131 140 8 252 207 44 136 8 244 218 216 6 1 232 235 143 25 192 173 211 123 152 205 57 130 166 185 223 161 6 67 195 106 226 229 6 86 137 196 90 182 227 209 106 232 192 27 193 9 144 213 132 162 90 75 24 75 46 207 237 117 115 178 169 17 27 53 